<svg xmlns="http://www.w3.org/2000/svg" viewBox="0 0 900 320" font-family="'IBM Plex Mono', 'Courier New', monospace">
  <metadata>Archived historical visualization asset. truth_class: historical. archived_on: 2026-04-04. superseded_by: work/done/E-09-observation-layer/M-OBS-03-dag-visualization.md; runtime/apps/liminara_web/.</metadata>
  <defs>
    <filter id="grain">
      <feTurbulence type="fractalNoise" baseFrequency="0.65" numOctaves="3" stitchTiles="stitch" result="noise"/>
      <feColorMatrix type="saturate" values="0" in="noise" result="gray"/>
      <feBlend in="SourceGraphic" in2="gray" mode="multiply" result="blend"/>
      <feComponentTransfer in="blend">
        <feFuncA type="linear" slope="0.03"/>
      </feComponentTransfer>
      <feComposite in="SourceGraphic" in2="blend" operator="over"/>
    </filter>
  </defs>

  <!-- Board surface -->
  <rect width="900" height="320" fill="#F5F0E8" filter="url(#grain)"/>
  <rect x="10" y="10" width="880" height="300" rx="4" fill="none" stroke="#D4CFC7" stroke-width="0.5"/>

  <!-- Mounting holes -->
  <circle cx="24" cy="24" r="3.5" fill="none" stroke="#D4CFC7" stroke-width="0.4"/>
  <circle cx="24" cy="24" r="1.5" fill="#D4CFC7" opacity="0.3"/>
  <circle cx="876" cy="24" r="3.5" fill="none" stroke="#D4CFC7" stroke-width="0.4"/>
  <circle cx="876" cy="24" r="1.5" fill="#D4CFC7" opacity="0.3"/>
  <circle cx="24" cy="296" r="3.5" fill="none" stroke="#D4CFC7" stroke-width="0.4"/>
  <circle cx="24" cy="296" r="1.5" fill="#D4CFC7" opacity="0.3"/>
  <circle cx="876" cy="296" r="3.5" fill="none" stroke="#D4CFC7" stroke-width="0.4"/>
  <circle cx="876" cy="296" r="1.5" fill="#D4CFC7" opacity="0.3"/>

  <text x="40" y="28" font-size="9" fill="#2C2C2C" letter-spacing="0.08em" opacity="0.6">BOARD OVERVIEW — SOFTWARE FACTORY (847 COMPONENTS)  REV 1.0</text>
  <text x="40" y="40" font-size="6.5" fill="#8C8680">Far zoom. Components as rectangles. Traces as lines. Phase boundaries marked.</text>
  <line x1="40" y1="46" x2="860" y2="46" stroke="#D4CFC7" stroke-width="0.3"/>

  <!-- Phase dividers (silk screen) -->
  <line x1="185" y1="50" x2="185" y2="255" stroke="#D4CFC7" stroke-width="0.3" stroke-dasharray="2,3"/>
  <line x1="585" y1="50" x2="585" y2="255" stroke="#D4CFC7" stroke-width="0.3" stroke-dasharray="2,3"/>
  <line x1="735" y1="50" x2="735" y2="255" stroke="#D4CFC7" stroke-width="0.3" stroke-dasharray="2,3"/>

  <text x="100" y="58" font-size="6" fill="#8C8680" text-anchor="middle">I. Planning</text>
  <text x="385" y="58" font-size="6" fill="#8C8680" text-anchor="middle">II. Implementation</text>
  <text x="660" y="58" font-size="6" fill="#8C8680" text-anchor="middle">III. Testing</text>
  <text x="800" y="58" font-size="6" fill="#8C8680" text-anchor="middle">IV. Review</text>

  <!-- ===== PLANNING: sparse coral components ===== -->
  <!-- LLM decision components (coral rectangles) -->
  <rect x="50" y="80" width="12" height="8" rx="1" fill="#E8846B" opacity="0.4"/>
  <rect x="70" y="90" width="14" height="10" rx="1" fill="#E8846B" opacity="0.35"/>
  <rect x="95" y="85" width="10" height="6" rx="1" fill="#E8846B" opacity="0.3"/>
  <rect x="115" y="100" width="16" height="12" rx="1" fill="#E8846B" opacity="0.4"/>
  <rect x="140" y="88" width="8" height="6" rx="1" fill="#E8846B" opacity="0.3"/>
  <rect x="105" y="115" width="12" height="8" rx="1" fill="#E8846B" opacity="0.35"/>

  <!-- Planning traces -->
  <path d="M 62 84 L 70 90" stroke="#E8846B" stroke-width="0.5" fill="none" opacity="0.2"/>
  <path d="M 84 95 L 95 88" stroke="#E8846B" stroke-width="0.5" fill="none" opacity="0.2"/>
  <path d="M 105 88 L 115 100" stroke="#E8846B" stroke-width="0.5" fill="none" opacity="0.2"/>
  <path d="M 131 106 L 140 91" stroke="#E8846B" stroke-width="0.5" fill="none" opacity="0.2"/>

  <!-- Gate (unpopulated footprint) -->
  <rect x="155" y="110" width="18" height="10" rx="1" fill="none" stroke="#C45B4A" stroke-width="0.5" stroke-dasharray="2,1.5" opacity="0.4"/>
  <text x="164" y="127" font-size="4" fill="#C45B4A" text-anchor="middle" opacity="0.5">gate</text>

  <!-- ===== IMPLEMENTATION: dense teal farm ===== -->
  <!-- Dense component farm (many small teal rectangles) -->
  <!-- Row 1 -->
  <rect x="200" y="72" width="8" height="5" rx="0.5" fill="#2B8A8E" opacity="0.3"/>
  <rect x="212" y="70" width="10" height="6" rx="0.5" fill="#2B8A8E" opacity="0.35"/>
  <rect x="226" y="72" width="8" height="5" rx="0.5" fill="#2B8A8E" opacity="0.3"/>
  <rect x="238" y="68" width="12" height="8" rx="0.5" fill="#2B8A8E" opacity="0.4"/>
  <rect x="254" y="72" width="8" height="5" rx="0.5" fill="#2B8A8E" opacity="0.3"/>
  <rect x="266" y="70" width="10" height="6" rx="0.5" fill="#2B8A8E" opacity="0.35"/>
  <rect x="280" y="72" width="8" height="5" rx="0.5" fill="#2B8A8E" opacity="0.3"/>
  <rect x="292" y="68" width="14" height="10" rx="0.5" fill="#2B8A8E" opacity="0.4"/>
  <rect x="310" y="72" width="8" height="5" rx="0.5" fill="#2B8A8E" opacity="0.3"/>
  <rect x="322" y="70" width="10" height="6" rx="0.5" fill="#2B8A8E" opacity="0.35"/>
  <rect x="336" y="72" width="8" height="5" rx="0.5" fill="#2B8A8E" opacity="0.3"/>
  <rect x="348" y="68" width="12" height="8" rx="0.5" fill="#2B8A8E" opacity="0.4"/>
  <rect x="364" y="70" width="8" height="5" rx="0.5" fill="#2B8A8E" opacity="0.3"/>
  <rect x="376" y="72" width="10" height="6" rx="0.5" fill="#2B8A8E" opacity="0.35"/>
  <rect x="390" y="68" width="8" height="5" rx="0.5" fill="#2B8A8E" opacity="0.3"/>
  <rect x="402" y="72" width="12" height="8" rx="0.5" fill="#2B8A8E" opacity="0.4"/>

  <!-- Row 2 -->
  <rect x="205" y="86" width="10" height="6" rx="0.5" fill="#2B8A8E" opacity="0.3"/>
  <rect x="220" y="84" width="8" height="5" rx="0.5" fill="#2B8A8E" opacity="0.35"/>
  <rect x="232" y="86" width="12" height="8" rx="0.5" fill="#2B8A8E" opacity="0.4"/>
  <rect x="248" y="84" width="8" height="5" rx="0.5" fill="#2B8A8E" opacity="0.3"/>
  <rect x="260" y="86" width="10" height="6" rx="0.5" fill="#2B8A8E" opacity="0.35"/>
  <rect x="274" y="84" width="8" height="5" rx="0.5" fill="#2B8A8E" opacity="0.3"/>
  <rect x="286" y="86" width="12" height="8" rx="0.5" fill="#2B8A8E" opacity="0.4"/>
  <rect x="302" y="84" width="8" height="5" rx="0.5" fill="#2B8A8E" opacity="0.3"/>
  <rect x="314" y="86" width="10" height="6" rx="0.5" fill="#2B8A8E" opacity="0.35"/>
  <rect x="328" y="84" width="14" height="10" rx="0.5" fill="#2B8A8E" opacity="0.45"/>
  <rect x="346" y="86" width="8" height="5" rx="0.5" fill="#2B8A8E" opacity="0.3"/>
  <rect x="358" y="84" width="10" height="6" rx="0.5" fill="#2B8A8E" opacity="0.35"/>
  <rect x="372" y="86" width="12" height="8" rx="0.5" fill="#2B8A8E" opacity="0.4"/>
  <rect x="388" y="84" width="8" height="5" rx="0.5" fill="#2B8A8E" opacity="0.3"/>

  <!-- Row 3 -->
  <rect x="200" y="100" width="8" height="5" rx="0.5" fill="#2B8A8E" opacity="0.3"/>
  <rect x="212" y="98" width="10" height="6" rx="0.5" fill="#2B8A8E" opacity="0.35"/>
  <rect x="226" y="100" width="12" height="8" rx="0.5" fill="#2B8A8E" opacity="0.4"/>
  <rect x="242" y="98" width="8" height="5" rx="0.5" fill="#2B8A8E" opacity="0.3"/>
  <rect x="254" y="100" width="10" height="6" rx="0.5" fill="#2B8A8E" opacity="0.35"/>
  <rect x="268" y="98" width="8" height="5" rx="0.5" fill="#2B8A8E" opacity="0.3"/>
  <rect x="280" y="100" width="14" height="10" rx="0.5" fill="#2B8A8E" opacity="0.45"/>
  <rect x="298" y="98" width="8" height="5" rx="0.5" fill="#2B8A8E" opacity="0.3"/>
  <rect x="310" y="100" width="10" height="6" rx="0.5" fill="#2B8A8E" opacity="0.35"/>
  <rect x="324" y="98" width="8" height="5" rx="0.5" fill="#2B8A8E" opacity="0.3"/>

  <!-- Row 4 (deeper) -->
  <rect x="210" y="114" width="10" height="6" rx="0.5" fill="#2B8A8E" opacity="0.3"/>
  <rect x="225" y="112" width="12" height="8" rx="0.5" fill="#2B8A8E" opacity="0.4"/>
  <rect x="242" y="114" width="8" height="5" rx="0.5" fill="#2B8A8E" opacity="0.3"/>
  <rect x="254" y="112" width="10" height="6" rx="0.5" fill="#2B8A8E" opacity="0.35"/>
  <rect x="268" y="114" width="8" height="5" rx="0.5" fill="#2B8A8E" opacity="0.3"/>

  <!-- Row 5 -->
  <rect x="215" y="126" width="8" height="5" rx="0.5" fill="#2B8A8E" opacity="0.3"/>
  <rect x="228" y="124" width="10" height="6" rx="0.5" fill="#2B8A8E" opacity="0.35"/>
  <rect x="242" y="126" width="12" height="8" rx="0.5" fill="#2B8A8E" opacity="0.4"/>

  <!-- Continuation rows (more columns) -->
  <rect x="418" y="72" width="8" height="5" rx="0.5" fill="#2B8A8E" opacity="0.3"/>
  <rect x="430" y="68" width="12" height="8" rx="0.5" fill="#2B8A8E" opacity="0.4"/>
  <rect x="446" y="72" width="8" height="5" rx="0.5" fill="#2B8A8E" opacity="0.3"/>
  <rect x="458" y="70" width="10" height="6" rx="0.5" fill="#2B8A8E" opacity="0.35"/>
  <rect x="472" y="72" width="8" height="5" rx="0.5" fill="#2B8A8E" opacity="0.3"/>
  <rect x="484" y="68" width="12" height="8" rx="0.5" fill="#2B8A8E" opacity="0.4"/>
  <rect x="500" y="72" width="10" height="6" rx="0.5" fill="#2B8A8E" opacity="0.35"/>
  <rect x="514" y="70" width="8" height="5" rx="0.5" fill="#2B8A8E" opacity="0.3"/>
  <rect x="526" y="72" width="12" height="8" rx="0.5" fill="#2B8A8E" opacity="0.4"/>
  <rect x="542" y="68" width="8" height="5" rx="0.5" fill="#2B8A8E" opacity="0.3"/>
  <rect x="554" y="72" width="10" height="6" rx="0.5" fill="#2B8A8E" opacity="0.35"/>
  <rect x="568" y="70" width="8" height="5" rx="0.5" fill="#2B8A8E" opacity="0.3"/>

  <rect x="420" y="86" width="10" height="6" rx="0.5" fill="#2B8A8E" opacity="0.3"/>
  <rect x="434" y="84" width="12" height="8" rx="0.5" fill="#2B8A8E" opacity="0.4"/>
  <rect x="450" y="86" width="8" height="5" rx="0.5" fill="#2B8A8E" opacity="0.3"/>
  <rect x="462" y="84" width="10" height="6" rx="0.5" fill="#2B8A8E" opacity="0.35"/>
  <rect x="476" y="86" width="8" height="5" rx="0.5" fill="#2B8A8E" opacity="0.3"/>
  <rect x="488" y="84" width="14" height="10" rx="0.5" fill="#2B8A8E" opacity="0.45"/>
  <rect x="506" y="86" width="8" height="5" rx="0.5" fill="#2B8A8E" opacity="0.3"/>
  <rect x="518" y="84" width="10" height="6" rx="0.5" fill="#2B8A8E" opacity="0.35"/>
  <rect x="532" y="86" width="8" height="5" rx="0.5" fill="#2B8A8E" opacity="0.3"/>
  <rect x="544" y="84" width="12" height="8" rx="0.5" fill="#2B8A8E" opacity="0.4"/>

  <rect x="422" y="100" width="8" height="5" rx="0.5" fill="#2B8A8E" opacity="0.3"/>
  <rect x="434" y="98" width="10" height="6" rx="0.5" fill="#2B8A8E" opacity="0.35"/>
  <rect x="448" y="100" width="12" height="8" rx="0.5" fill="#2B8A8E" opacity="0.4"/>
  <rect x="464" y="98" width="8" height="5" rx="0.5" fill="#2B8A8E" opacity="0.3"/>
  <rect x="476" y="100" width="10" height="6" rx="0.5" fill="#2B8A8E" opacity="0.35"/>
  <rect x="490" y="98" width="8" height="5" rx="0.5" fill="#2B8A8E" opacity="0.3"/>
  <rect x="502" y="100" width="14" height="10" rx="0.5" fill="#2B8A8E" opacity="0.45"/>

  <!-- Amber I/O peripherals scattered in the teal farm -->
  <rect x="340" y="100" width="10" height="6" rx="0.5" fill="#D4944C" opacity="0.35"/>
  <rect x="375" y="112" width="8" height="5" rx="0.5" fill="#D4944C" opacity="0.3"/>
  <rect x="405" y="86" width="10" height="6" rx="0.5" fill="#D4944C" opacity="0.35"/>
  <rect x="468" y="112" width="8" height="5" rx="0.5" fill="#D4944C" opacity="0.3"/>
  <rect x="530" y="100" width="10" height="6" rx="0.5" fill="#D4944C" opacity="0.35"/>

  <!-- Coral LLM components scattered -->
  <rect x="360" y="70" width="12" height="8" rx="0.5" fill="#E8846B" opacity="0.35"/>
  <rect x="440" y="98" width="10" height="6" rx="0.5" fill="#E8846B" opacity="0.3"/>
  <rect x="510" y="112" width="12" height="8" rx="0.5" fill="#E8846B" opacity="0.35"/>

  <!-- Bus traces (thick horizontal lines through the farm) -->
  <line x1="192" y1="140" x2="580" y2="140" stroke="#2B8A8E" stroke-width="1.5" opacity="0.12"/>
  <line x1="192" y1="145" x2="580" y2="145" stroke="#2B8A8E" stroke-width="1" opacity="0.1"/>
  <line x1="192" y1="149" x2="580" y2="149" stroke="#D4944C" stroke-width="0.8" opacity="0.08"/>

  <!-- ===== TESTING: mixed, medium density ===== -->
  <!-- Test components -->
  <rect x="600" y="75" width="10" height="6" rx="0.5" fill="#D4944C" opacity="0.3"/>
  <rect x="615" y="72" width="12" height="8" rx="0.5" fill="#2B8A8E" opacity="0.35"/>
  <rect x="632" y="75" width="8" height="5" rx="0.5" fill="#2B8A8E" opacity="0.3"/>
  <rect x="644" y="72" width="10" height="6" rx="0.5" fill="#D4944C" opacity="0.35"/>
  <rect x="658" y="75" width="12" height="8" rx="0.5" fill="#2B8A8E" opacity="0.4"/>
  <rect x="674" y="72" width="8" height="5" rx="0.5" fill="#2B8A8E" opacity="0.3"/>
  <rect x="686" y="75" width="10" height="6" rx="0.5" fill="#D4944C" opacity="0.35"/>
  <rect x="700" y="72" width="8" height="5" rx="0.5" fill="#2B8A8E" opacity="0.3"/>
  <rect x="714" y="75" width="10" height="6" rx="0.5" fill="#2B8A8E" opacity="0.35"/>

  <rect x="605" y="90" width="8" height="5" rx="0.5" fill="#2B8A8E" opacity="0.3"/>
  <rect x="618" y="88" width="10" height="6" rx="0.5" fill="#2B8A8E" opacity="0.35"/>
  <rect x="632" y="90" width="8" height="5" rx="0.5" fill="#D4944C" opacity="0.3"/>
  <rect x="644" y="88" width="12" height="8" rx="0.5" fill="#2B8A8E" opacity="0.4"/>
  <rect x="660" y="90" width="10" height="6" rx="0.5" fill="#2B8A8E" opacity="0.35"/>
  <rect x="674" y="88" width="8" height="5" rx="0.5" fill="#D4944C" opacity="0.3"/>
  <rect x="686" y="90" width="10" height="6" rx="0.5" fill="#2B8A8E" opacity="0.35"/>

  <rect x="610" y="104" width="10" height="6" rx="0.5" fill="#2B8A8E" opacity="0.3"/>
  <rect x="624" y="102" width="8" height="5" rx="0.5" fill="#D4944C" opacity="0.35"/>
  <rect x="636" y="104" width="12" height="8" rx="0.5" fill="#2B8A8E" opacity="0.4"/>

  <!-- FAILURE: short circuit marker -->
  <rect x="660" y="104" width="10" height="6" rx="0.5" fill="#C45B4A" opacity="0.5"/>
  <line x1="658" y1="102" x2="672" y2="112" stroke="#C45B4A" stroke-width="0.8" opacity="0.6"/>
  <line x1="672" y1="102" x2="658" y2="112" stroke="#C45B4A" stroke-width="0.8" opacity="0.6"/>
  <text x="665" y="120" font-size="4" fill="#C45B4A" text-anchor="middle">SHORT</text>

  <!-- Testing traces -->
  <line x1="592" y1="115" x2="728" y2="115" stroke="#2B8A8E" stroke-width="0.8" opacity="0.1"/>

  <!-- ===== REVIEW: gate + final connectors ===== -->
  <!-- Gate footprint (unpopulated) -->
  <rect x="750" y="78" width="30" height="16" rx="2" fill="none" stroke="#C45B4A" stroke-width="0.5" stroke-dasharray="2,1.5" opacity="0.4"/>
  <text x="765" y="102" font-size="4" fill="#C45B4A" text-anchor="middle" opacity="0.5">gate: 12m</text>

  <!-- Wide gap (empty board space) -->

  <!-- Final delivery connectors -->
  <rect x="830" y="78" width="10" height="6" rx="0.5" fill="#2B8A8E" opacity="0.35"/>
  <rect x="844" y="76" width="8" height="5" rx="0.5" fill="#D4944C" opacity="0.3"/>
  <rect x="856" y="78" width="10" height="6" rx="0.5" fill="#2B8A8E" opacity="0.35"/>

  <!-- ===== SUMMARY STATISTICS ===== -->
  <line x1="40" y1="170" x2="860" y2="170" stroke="#D4CFC7" stroke-width="0.3"/>

  <text x="40" y="188" font-size="7" fill="#8C8680" letter-spacing="0.04em">BILL OF MATERIALS</text>

  <!-- Component count by type -->
  <rect x="40" y="196" width="8" height="8" rx="1" fill="#2B8A8E" opacity="0.5"/>
  <text x="54" y="204" font-size="7" fill="#8C8680">612 pure (72%)</text>

  <rect x="160" y="196" width="8" height="8" rx="1" fill="#D4944C" opacity="0.5"/>
  <text x="174" y="204" font-size="7" fill="#8C8680">144 I/O (17%)</text>

  <rect x="280" y="196" width="8" height="8" rx="1" fill="#E8846B" opacity="0.5"/>
  <text x="294" y="204" font-size="7" fill="#8C8680">85 LLM (10%)</text>

  <rect x="400" y="196" width="8" height="8" rx="1" fill="none" stroke="#C45B4A" stroke-width="0.5" stroke-dasharray="1.5,1"/>
  <text x="414" y="204" font-size="7" fill="#8C8680">3 gates</text>

  <rect x="490" y="196" width="8" height="8" rx="1" fill="#C45B4A" opacity="0.5"/>
  <text x="504" y="204" font-size="7" fill="#8C8680">1 failure</text>

  <text x="580" y="204" font-size="7" fill="#8C8680">2 vias (class transitions)</text>

  <!-- Routing density bar -->
  <text x="40" y="224" font-size="7" fill="#8C8680" letter-spacing="0.04em">TRACE DENSITY</text>

  <!-- Density visualization (bars per phase) -->
  <rect x="40" y="232" width="100" height="6" rx="1" fill="#E8846B" opacity="0.15"/>
  <rect x="40" y="232" width="25" height="6" rx="1" fill="#E8846B" opacity="0.3"/>
  <text x="40" y="248" font-size="5" fill="#8C8680">Planning: sparse</text>

  <rect x="200" y="232" width="280" height="6" rx="1" fill="#2B8A8E" opacity="0.15"/>
  <rect x="200" y="232" width="250" height="6" rx="1" fill="#2B8A8E" opacity="0.3"/>
  <text x="200" y="248" font-size="5" fill="#8C8680">Implementation: dense (peak: 18 parallel traces)</text>

  <rect x="540" y="232" width="120" height="6" rx="1" fill="#D4944C" opacity="0.15"/>
  <rect x="540" y="232" width="70" height="6" rx="1" fill="#D4944C" opacity="0.3"/>
  <text x="540" y="248" font-size="5" fill="#8C8680">Testing: medium</text>

  <rect x="720" y="232" width="100" height="6" rx="1" fill="#C45B4A" opacity="0.15"/>
  <rect x="720" y="232" width="15" height="6" rx="1" fill="#C45B4A" opacity="0.3"/>
  <text x="720" y="248" font-size="5" fill="#8C8680">Review: minimal</text>

  <!-- Board specs -->
  <text x="40" y="280" font-size="6" fill="#8C8680">847 components  |  1,204 traces  |  2 vias  |  4 layers (I/O, pure, LLM, control)  |  Board size: proportional to total execution time</text>
</svg>
