<svg xmlns="http://www.w3.org/2000/svg" viewBox="0 0 720 200" font-family="'IBM Plex Mono', 'Courier New', monospace">
  <metadata>Archived historical visualization asset. truth_class: historical. archived_on: 2026-04-04. superseded_by: work/done/E-09-observation-layer/M-OBS-03-dag-visualization.md; runtime/apps/liminara_web/.</metadata>
  <rect width="720" height="200" fill="#F5F0E8"/>

  <text x="24" y="28" font-size="11" fill="#2C2C2C" letter-spacing="0.08em">LIMINARA TIDEPOOL PALETTE</text>
  <line x1="24" y1="36" x2="696" y2="36" stroke="#2C2C2C" stroke-width="0.5" opacity="0.3"/>

  <!-- Paper -->
  <rect x="24" y="52" width="60" height="60" rx="30" fill="#F5F0E8" stroke="#2C2C2C" stroke-width="0.5"/>
  <text x="54" y="130" font-size="9" fill="#2C2C2C" text-anchor="middle">paper</text>
  <text x="54" y="142" font-size="8" fill="#8C8680" text-anchor="middle">#F5F0E8</text>

  <!-- Ink -->
  <rect x="104" y="52" width="60" height="60" rx="30" fill="#2C2C2C"/>
  <text x="134" y="130" font-size="9" fill="#2C2C2C" text-anchor="middle">ink</text>
  <text x="134" y="142" font-size="8" fill="#8C8680" text-anchor="middle">#2C2C2C</text>

  <!-- Ink Light -->
  <rect x="184" y="52" width="60" height="60" rx="30" fill="#8C8680"/>
  <text x="214" y="130" font-size="9" fill="#2C2C2C" text-anchor="middle">ink-light</text>
  <text x="214" y="142" font-size="8" fill="#8C8680" text-anchor="middle">#8C8680</text>

  <!-- Ink Ghost -->
  <rect x="264" y="52" width="60" height="60" rx="30" fill="#D4CFC7"/>
  <text x="294" y="130" font-size="9" fill="#2C2C2C" text-anchor="middle">ink-ghost</text>
  <text x="294" y="142" font-size="8" fill="#8C8680" text-anchor="middle">#D4CFC7</text>

  <!-- Divider -->
  <line x1="348" y1="52" x2="348" y2="112" stroke="#D4CFC7" stroke-width="0.5"/>

  <!-- Teal (pure) -->
  <rect x="372" y="52" width="60" height="60" rx="30" fill="#2B8A8E"/>
  <text x="402" y="130" font-size="9" fill="#2C2C2C" text-anchor="middle">teal</text>
  <text x="402" y="142" font-size="8" fill="#8C8680" text-anchor="middle">pure</text>
  <text x="402" y="154" font-size="8" fill="#8C8680" text-anchor="middle">#2B8A8E</text>

  <!-- Coral (recordable) -->
  <rect x="452" y="52" width="60" height="60" rx="30" fill="#E8846B"/>
  <text x="482" y="130" font-size="9" fill="#2C2C2C" text-anchor="middle">coral</text>
  <text x="482" y="142" font-size="8" fill="#8C8680" text-anchor="middle">recordable</text>
  <text x="482" y="154" font-size="8" fill="#8C8680" text-anchor="middle">#E8846B</text>

  <!-- Amber (side-effecting) -->
  <rect x="532" y="52" width="60" height="60" rx="30" fill="#D4944C"/>
  <text x="562" y="130" font-size="9" fill="#2C2C2C" text-anchor="middle">amber</text>
  <text x="562" y="142" font-size="8" fill="#8C8680" text-anchor="middle">side-effect</text>
  <text x="562" y="154" font-size="8" fill="#8C8680" text-anchor="middle">#D4944C</text>

  <!-- Red (error/gate) -->
  <rect x="612" y="52" width="60" height="60" rx="30" fill="#C45B4A"/>
  <text x="642" y="130" font-size="9" fill="#2C2C2C" text-anchor="middle">red</text>
  <text x="642" y="142" font-size="8" fill="#8C8680" text-anchor="middle">error/gate</text>
  <text x="642" y="154" font-size="8" fill="#8C8680" text-anchor="middle">#C45B4A</text>

  <!-- Footer -->
  <text x="24" y="184" font-size="8" fill="#8C8680" letter-spacing="0.05em">Determinism class encoded as color. Consistent across all views and zoom levels.</text>
</svg>
